# xmcd
#
# Track frame offsets:
#	150
#	19312
#	30657
#	41852
#	56330
#	64922
#	76622
#	92327
#	105332
#	124167
#	141707
#	161392
#	177010
#	192740
#	211027
#	222805
#	237607
#	257207
#	267952
#	279570
#
# Disc length: 3908 seconds
#
# Revision: 1
# Processed by: cddbd v1.5.2PL0 Copyright (c) Steve Scherf et al.
# Submitted via: audiograbber 1.83.01
#
DISCID=200f4214
DTITLE=RMCMA - Record Vol 02
DYEAR=1998
DGENRE=Country
TTITLE0=World Of Hurt - Keith Jackson
TTITLE1=This Old Heart - Dc Sayer
TTITLE2=Put 3 Beers In The Freezer - Dave Martin
TTITLE3=I Can´t Wait To Hold You - Nat Chavis
TTITLE4=Hello Heaven - Leo Hayes
TTITLE5=More Than One Kind Of Smoke - Misty Dawn
TTITLE6=Take These Dreams - Mike Tritz
TTITLE7=I Dedicate This Song To You - Rusty Ellis
TTITLE8=Where Do I Go From Here - Melissa Youngblood
TTITLE9=Lonly Moved In - Josie
TTITLE10=What Do I Do - Dc Sayner
TTITLE11=When 2 Rights Make A Wrong - Danny Edwards
TTITLE12=When I´m Chacing A Dream - Judy Welden
TTITLE13=She Loves Jack Daniels - Dave Martin
TTITLE14=Misty Dawn
TTITLE15=It´s Worth Loving You - Rusty Ellis
TTITLE16=Brand New Start - Naomi Jean
TTITLE17=Nashville Don´t Need You Today - Rusty Ellis
TTITLE18=Party-time Baby - Misty Dawn
TTITLE19=When Are We Gonna Learn - Tom Bennett
EXTD=
EXTT0=
EXTT1=
EXTT2=
EXTT3=
EXTT4=
EXTT5=
EXTT6=
EXTT7=
EXTT8=
EXTT9=
EXTT10=
EXTT11=
EXTT12=
EXTT13=
EXTT14=
EXTT15=
EXTT16=
EXTT17=
EXTT18=
EXTT19=
PLAYORDER=
